<svg cache-id="b8ab0e1393474f3d9f46acb7e341c90a" id="e6hEbCLUtur1" xmlns="http://www.w3.org/2000/svg" xmlns:xlink="http://www.w3.org/1999/xlink" height = "170px" width = "400px" viewBox="300 -50 100 250" shape-rendering="geometricPrecision" text-rendering="geometricPrecision"><g transform="matrix(1.7545 0 0 1.7545 87.2743-8.77248)"><g><path d="M48.301,45.737c-2.721-3.082-.929-6.432-.07-7.687.2-.292.35-.472.379-.506.183-.214.158-.535-.056-.717-.214-.183-.535-.158-.718.055-.046.054-1.146,1.351-1.694,3.216-.157.535-.276,1.147-.297,1.808-.049,1.512.413,3.277,2.105,4.942.099.098.228.146.357.146.132,0,.263-.051.363-.152.197-.2.195-.523-.006-.72-.129-.128-.25-.256-.363-.385Z" fill="#ffffff"/><path d="M89.898,43.798l-.583-.696c-2.152-2.568-4.637-4.924-7.382-7.018l.002-.002-.136-.1c-.034-.026-.067-.052-.101-.077l-.001.002-.973-.716-1.114-.772-.281-.195-.476-1.423c-.002-.002-.005-.004-.007-.006l-.212-.628c.001-.004.002-.009.003-.013l-4.983-14.91c-.213-.616-.665-1.052-1.24-1.194-.542-.134-1.108.013-1.569.404l-4.556,3L55.166,5.661c-.338-.418-.839-.659-1.377-.661h-.006c-.535,0-1.036.237-1.375.653L41.836,18.609l-9.605-7.828c-.395-.367-.923-.532-1.46-.455-.561.081-1.037.413-1.307.911L18.374,33.26l-.846,1.661-.107.232-.421.836c-.047.094-.079.191-.098.29-.112.087-.223.174-.335.262l.006.01-1.024.846-.012-.021c-1.734,1.444-3.349,2.996-4.822,4.642l-.612.684L34.138,74.588L43.721,87.3L49.525,95l6.051-7.674v0l9.96-12.632L89.898,43.798Zm-2.884.051l-1.506,1.91C79.41,39.896,69.733,35.303,63.254,33.778c-.423-.1-.848.163-.948.587s.163.848.587.948c1.076.253,2.245.596,3.471,1.015c5.016,1.716,11,4.748,15.68,8.494.879.703,1.712,1.431,2.484,2.181l-1.771,2.246C75.03,43.086,68.302,40,59.141,38.361c-.429-.076-.838.209-.915.637s.208.838.637.915c1.068.191,2.098.402,3.098.632c6.792,1.567,12.153,4.119,18.138,8.633.555.418,1.115.854,1.683,1.307l-2.33,2.955c-1.765-.744-3.075-2.145-3.48-3.824-.605,2.511-3.232,4.401-6.382,4.401-3.079,0-5.659-1.807-6.338-4.234-.143.513-.372.997-.672,1.443-6.51-2.952-10.492-6.481-10.942-9.715-.264-1.897.69-3.764,2.836-5.55c2.333-1.941,3.422-3.917,3.237-5.873-.066-.697-.29-1.314-.587-1.847c4.93.697,9.721,2.068,14.134,4.065C77.391,35.08,82.82,39.06,87.014,43.849ZM59.467,53.576c-3.138-1.215-4.248-2.39-4.269-2.412-.188-.208-.508-.225-.717-.038-.21.188-.228.509-.041.719.045.05.929,1.016,3.337,2.124-.282.031-.571.048-.863.048-3.251,0-5.946-2.014-6.434-4.647-.159.858-.553,1.649-1.124,2.328v0v0c-1.806-1.119-5.865-4.115-5.283-8.14.024-.165.055-.331.095-.499.039-.164-.007-.327-.109-.447-.068-.08-.159-.14-.269-.166-.274-.065-.548.104-.613.378-.012.05-.022.1-.033.15-.541,2.533.424,5.081,2.798,7.378.947.917,1.936,1.62,2.667,2.085-.399.332-.849.62-1.338.857-.016-.008-.031-.017-.046-.025-4.424-2.109-6.832-4.915-6.963-8.115-.092-2.243.972-4.537,2.951-6.544.97-.984,2.16-1.898,3.542-2.703c1.156-.673,2.125-1.354,2.907-2.042c1.624-1.427,2.442-2.883,2.437-4.349-.002-.669-.177-1.26-.431-1.767.882.035,1.761.092,2.639.169.564.457,1.359,1.282,1.457,2.364.1,1.103-.531,2.306-1.874,3.583-.206.196-.428.394-.668.594-2.22,1.847-3.415,3.84-3.568,5.941-.033.455-.018.916.046,1.381.536,3.848,4.581,7.705,11.426,10.927-.494.356-1.053.65-1.659.868ZM71.734,18.541l1.661,4.97-1.325-.828c-.258-.161-.585-.16-.841.004l-1.268.807-.124-1.434c-.032-.365-.311-.661-.674-.713l-1.389-.198l3.96-2.608ZM53.781,7.501l4.781,5.927-2.744-.274c-.205-.021-.41.04-.571.169l-1.931,1.545-1.278-2.077c-.14-.228-.387-.369-.655-.375l-1.585-.033l3.983-4.882Zm-5.18,6.349l-.002.084l2.321.049l1.521,2.47c.118.192.314.325.536.363.045.008.09.012.135.012.177,0,.352-.06.492-.173l2.376-1.901l3.971.397l4.464,5.534-1.252.825-1.27.836c-.515.339-.657,1.031-.318,1.546s1.031.658,1.546.319l.358-.236l2.307-1.519l2.533.362.182,2.106c.024.275.189.517.437.639.247.122.54.106.772-.042l1.945-1.239l2.507,1.526l2.204,6.596c-1.282-.729-2.602-1.405-3.954-2.026-.078-.036-.156-.073-.235-.108-6.722-3.041-14.279-4.691-21.9-4.791l-5.672-4.613-1.04-.847l5.036-6.169Zm1.555,11.629c-.062-.001-.124-.002-.186-.003-.025-.079.07-.051.186.003ZM31.176,12.801l6.319,5.15-2.614-.121c-.309-.016-.598.154-.739.43l-.948,1.862-2.169-1.526c-.215-.151-.49-.185-.735-.092l-2.459.94l3.345-6.643Zm-4.398,8.734l3.683-1.408l2.57,1.808c.134.094.292.143.454.143.063,0,.127-.008.19-.023.222-.055.409-.204.512-.407l1.13-2.218l4.232.196l7.256,5.913c-6.718.316-13.162,1.8-19.195,4.423-2.413,1.049-4.729,2.279-6.92,3.666l6.088-12.093Zm8.975,18.888c-.1-.424-.525-.686-.948-.587-6.235,1.467-15.345,7.953-17.104,9.236l-1.899-2.519c.641-.598,1.385-1.241,2.217-1.908c4.776-3.833,12.434-8.478,19.961-10.084.824-.176,1.646-.316,2.462-.414.432-.052.741-.444.689-.876s-.445-.741-.876-.689c-9.869,1.184-20.471,8.151-25.406,12.706l-1.852-2.457c4.209-4.501,9.551-8.232,15.504-10.821c6.469-2.813,13.438-4.259,20.718-4.301.43.4.93,1.035.929,1.824-.002,1.381-1.555,3.045-4.373,4.685-4.842,2.818-7.632,6.936-7.464,11.016.139,3.387,2.307,6.448,6.158,8.77-.14.008-.28.013-.422.013-3.149,0-5.777-1.89-6.382-4.401-.605,2.511-3.232,4.401-6.382,4.401-3.079,0-5.659-1.807-6.338-4.234-.483,1.729-1.931,3.141-3.836,3.812L18.65,50.332c.978-.708,4.256-3.037,7.977-5.177.862-.496,1.747-.981,2.633-1.434c2.062-1.054,4.127-1.932,5.905-2.35.425-.1.688-.525.588-.948ZM24.946,53.046c1.512,1.626,3.81,2.63,6.338,2.63c1.847,0,3.656-.553,5.095-1.557.478-.334.909-.712,1.287-1.126.378.414.809.792,1.287,1.126c1.438,1.004,3.248,1.557,5.095,1.557c1.911,0,3.769-.588,5.231-1.655.447-.326.849-.69,1.203-1.085.354.395.756.76,1.202,1.085c1.463,1.067,3.321,1.655,5.231,1.655c2.528,0,4.826-1.004,6.338-2.63c1.512,1.626,3.81,2.63,6.338,2.63c1.847,0,3.656-.553,5.095-1.557.478-.334.909-.712,1.287-1.126.378.414.809.792,1.287,1.126.357.25.738.471,1.136.663l-5.003,6.345c-1.663-.728-2.908-2.042-3.349-3.62-.679,2.427-3.259,4.234-6.338,4.234-3.251,0-5.946-2.014-6.434-4.647-.488,2.633-3.182,4.647-6.434,4.647-3.149,0-5.777-1.89-6.382-4.401-.605,2.511-3.232,4.401-6.381,4.401-3.079,0-5.659-1.807-6.338-4.234-.549,1.961-2.338,3.517-4.63,4.042l-4.956-6.575c1.081-.455,2.037-1.113,2.795-1.928Zm6.789,7.724c1.512,1.626,3.81,2.63,6.338,2.63c1.847,0,3.656-.553,5.095-1.557.478-.334.909-.712,1.287-1.126.378.414.809.792,1.287,1.126C47.18,62.848,48.99,63.4,50.837,63.4c1.911,0,3.769-.588,5.231-1.655.447-.326.849-.69,1.202-1.085.354.395.756.76,1.203,1.085c1.463,1.067,3.32,1.655,5.231,1.655c2.528,0,4.826-1.004,6.338-2.63.638.686,1.417,1.26,2.294,1.696l-5.253,6.662c-1.775-.705-3.113-2.066-3.574-3.714-.679,2.427-3.259,4.234-6.338,4.234-3.251,0-5.946-2.014-6.434-4.647-.487,2.633-3.182,4.647-6.434,4.647-3.149,0-5.777-1.89-6.382-4.401-.502,2.085-2.399,3.74-4.831,4.243l-4.91-6.515c1.396-.442,2.624-1.205,3.555-2.205ZM52.837,87.192l-.101.128v0l-3.172,4.023-7.866-10.435c.751-.273,1.456-.645,2.087-1.105.447-.326.849-.69,1.203-1.085.354.395.756.76,1.202,1.085c1.463,1.067,3.321,1.655,5.231,1.655c2.528,0,4.826-1.004,6.338-2.63.297.319.624.614.977.881l-5.899,7.483Zm6.93-8.788c-.98-.738-1.695-1.722-2.007-2.839-.679,2.428-3.259,4.234-6.338,4.234-3.251,0-5.946-2.014-6.434-4.647-.378,2.041-2.083,3.71-4.345,4.357l-3.956-5.248-2.516-3.337c.888-.264,1.724-.66,2.462-1.175.478-.334.909-.712,1.287-1.126.378.414.809.792,1.287,1.126c1.438,1.004,3.248,1.558,5.095,1.558c1.911,0,3.769-.588,5.231-1.655.446-.326.849-.69,1.202-1.085.354.395.756.76,1.203,1.085c1.462,1.067,3.32,1.655,5.231,1.655c2.528,0,4.826-1.004,6.338-2.63.69.742,1.546,1.353,2.511,1.799L62.963,74.35l-3.196,4.054Z" fill="#ffffff"/></g></g><g transform="matrix(.64024 0 0 0.64024 293.918865 103.187406)"><path d="M0.78125,4.258h9.4434v3.1445h-6.2891v3.1543h4.7168v3.1445h-4.7168v3.1445v3.1543h-3.1543v-6.2988-3.1445-6.2988ZM35.499023,20v-15.742h3.1543v15.742h-3.1543ZM64.318359,3.965l9.4434,8.9941v-8.7012h3.1543v16.035l-9.4434-9.0039v8.7109h-3.1543v-16.035Zm42.139646.332v-.009766c2.1582,0,4.1992.77148,5.7422,2.3145c2.8125,2.8125,2.8125,8.291,0,11.094-1.543,1.5332-3.584,2.3047-5.7422,2.3047h-3.8867v-15.703h3.8867v-.000434Zm.0098,12.5487h.009765c1.2891,0,2.4805-.36133,3.3984-1.2793s1.2793-2.1289,1.2793-3.4277c0-1.2891-.36133-2.5-1.2891-3.4277-.91797-.92773-2.1289-1.2891-3.418-1.2891h-.72266v9.4238h.74219.000105ZM169.155278,4.258h3.5742l2.7148,4.9902l2.7148-4.9902h3.584l-4.7266,8.6816v7.0605h-3.1445v-7.0605l-4.7167-8.6816Zm43.467725-.078c2.1875,0,4.0625.78125,5.625,2.3438s2.3438,3.4375,2.3438,5.625-.78125,4.0625-2.3438,5.6152-3.4375,2.334-5.625,2.334-4.0625-.78125-5.6152-2.334-2.334-3.4277-2.334-5.6152.78125-4.0625,2.334-5.625s3.4277-2.3438,5.6152-2.3438Zm0,3.174c-1.3184,0-2.4414.46875-3.3691,1.4063s-1.3965,2.0605-1.3965,3.3691c0,1.3184.46875,2.4414,1.3965,3.3691s2.0508,1.3965,3.3691,1.3965c1.3086,0,2.4316-.46875,3.3691-1.3965s1.4063-2.0508,1.4063-3.3691c0-1.3086-.46875-2.4316-1.4063-3.3691s-2.0605-1.4063-3.3691-1.4063ZM255.32943,4.258h3.1738v6.3281v3.1641c0,1.748-.61523,3.2422-1.8555,4.4824s-2.7344,1.8555-4.4727,1.8555c-1.748,0-3.2422-.61523-4.4824-1.8555s-1.8555-2.7344-1.8555-4.4824v-3.1641-6.3281h3.1738v6.3281v2.832.32227c0,.86914.3125,1.6113.92773,2.2266s1.3574.92773,2.2266.92773c.85938,0,1.6016-.3125,2.2266-.92773s.9375-1.3574.9375-2.2266v-.32227-2.832-6.3281ZM284.158203,20l-.009765-15.762h5.1172c1.5137,0,3.0078.52734,4.0918,1.6113s1.5234,2.0996,1.5234,3.6133v.48828c0,1.1719-.33203,2.0313-.99609,2.9688s-1.2207,1.2109-2.2559,1.6016l3.5547,5.4785h-3.8477l-4.0234-6.1523v6.1523h-3.1543L284.158203,20Zm3.14455-8.1836l2.2559.009766c.6543,0,.98633-.16602,1.4453-.625s.625-.98633.625-1.6406c0-.64453-.16602-1.0742-.625-1.543s-1.2793-.63477-1.9336-.63477h-1.7676v4.4336ZM350.322271,4.258h3.3887l2.9004,7.4219l2.9004-7.4219l2.9004,7.4219l2.8906-7.4219h3.3984l-6.2891,16.035-2.9297-7.8027-2.8711,7.8027-6.289-16.035Zm44.698224,10.5369h2.7832l-1.3867-3.2715-1.3965,3.2715Zm-1.289,2.7832l-.019531-.009766c-.35156.80078-.71289,1.5918-1.0742,2.3926h-3.3887l7.1387-15.996l7.1582,15.996h-3.3984c-.35156-.79102-.70313-1.5918-1.0547-2.3828h-5.3613ZM425.529302,4.258h3.5742l2.7148,4.9902l2.7148-4.9902h3.584l-4.7266,8.6816v7.0605h-3.1445v-7.0605l-4.7167-8.6816Z" fill="#ffffff"/></g><g transform="matrix(3.92787 0 0 3.92787 254.759475 16.427406)"><path d="M6.61,6.441c2.8136,0,4.661,2.5424,4.661,4.6271c0,2.2373-1.8475,4.661-4.661,4.661h-3v3.9322c0,.20339-.13559.33881-.32203.33881h-1.7966c-.16949,0-.30508-.13543-.30508-.33881v-12.898c0-.16949.13559-.32203.32203-.32203h5.1017L6.61,6.441ZM6.3558,13.39c1.5932,0,2.4915-1.1697,2.4915-2.3222c0-1.1354-.89831-2.288-2.4915-2.288h-2.7458v4.6102h2.7458Zm13.881461,6.18644c-.25441-1.661-.27153-3.1529-.20373-4.7631.08458-2.0168-1.0678-3.3049-3.1356-3.3049-1.3729,0-2.8136.38983-3.6441.84746-.16933.10186-.30492.28831-.22017.4578l.54237,1.2881c.084746.18644.22034.25424.47458.15254c1.0169-.44068,1.8644-.69492,2.678-.69492.66102,0,1.0678.13559,1.051.79661-2.7458.47458-5.2373,1.0169-5.2373,3.339c0,1.5424,1.1017,2.3897,2.8475,2.3897c1.4407,0,2.0847-.42356,2.6102-.9322.11864.50864.32203.84746.74576.84746h1.2712c.18644,0,.25424-.22017.22034-.42356Zm-4.424-1.32234c-.52542,0-.88136-.15254-.88136-.59322c0-.76271,1.6102-1.1017,2.8136-1.3559-.016949.37288-.016949.94915,0,1.2712-.50847.42356-1.322.67797-1.9322.67797Zm11.508593,1.16963c.033898.13559-.050681.23763-.16933.33932-.27119.20339-.9322.32186-1.5424.32186-1.8644,0-2.7288-.84729-2.7288-3.1185v-3.1017h-.96594c-.16966,0-.3222-.13559-.3222-.3222v-.33898c0-.16949.033898-.28814.13559-.40678.94915-1.0678,1.9831-2.1866,2.8814-3.6273.084746-.13559.15254-.20339.23729-.20339h.16949c.15254,0,.22034.084746.22034.25424v2.3898h1.5085c.18644,0,.35593.15254.35593.33898v1.5764c0,.18644-.16949.33898-.35593.33898h-1.2034c-.13559,0-.25424-.016949-.32203-.050847v2.9831c0,.69475.16933,1.0846.83034,1.0846.22034,0,.42373-.033898.59322-.067797.22034-.050847.35593.084746.40678.30508l.27115,1.305134Zm10.220495.15271c.050847.22034-.033898.42339-.20339.42339h-1.4237c-.54237,0-.83051-.37288-.83051-.84746v-4.1864c0-.94915-.74559-1.3898-1.5422-1.3898-.74576,0-1.3898.33898-1.9661.88136v5.2202.067797c-.033898.11881-.13559.22051-.27119.25424h-.050847-1.7119c-.16949,0-.30508-.15238-.30508-.32186v-7.7456-.050847-3.7966c0-.62695-.11864-.91508-.18644-1.2202-.050847-.22034.033732-.42373.22034-.42373h1.4746c.49153,0,.83051.32203.83051.77966v5.0678c.59322-.42356,1.3559-.79661,2.322-.79661c1.7288,0,3.5085,1.1697,3.5085,3.2542v3.7288c.016784.47458.067631.79661.13543,1.1017ZM47.762529,6.441c.18661,0,.33898.15254.33898.32203v1.6949c0,.18644-.13559.32203-.33898.32203h-6.0678v3.4068h3.2203c.18644,0,.33898.15254.33898.33915v1.6778c0,.20339-.13559.3222-.33898.3222h-3.2203v5.1356c0,.20339-.11864.33881-.30508.33881h-1.2881c-.52542,0-.83051-.37288-.83051-.86441v-12.373c0-.16949.13559-.32203.32203-.32203h8.1695l-.00004.00012Zm3.1019,2.525c-.69492,0-1.2542-.55932-1.2542-1.2542s.55932-1.2712,1.2542-1.2712c.69475,0,1.271.57627,1.271,1.2712s-.57627,1.2542-1.271,1.2542Zm.8644,2.6443h-1.6951c-.18644,0-.32203.15254-.32203.32203v7.2032c0,.49153.30508.86441.83051.86441h1.2034c.16949,0,.30508-.13543.30508-.33881v-7.7288c0-.16949-.15254-.32203-.32186-.32203Zm10.915205,7.96614c.033898.22034-.033732.42356-.20322.42356h-1.4237c-.54237,0-.84746-.37288-.84746-.84746v-4.1864c0-.94915-.72881-1.3898-1.5254-1.3898-.74576,0-1.3898.33898-1.9661.86441v5.2373c0,.16949-.15254.32186-.32203.32186h-1.7119c-.16949,0-.30508-.15238-.30508-.32186v-7.7456c0-.16949.13559-.32203.30508-.32203h1.1695c.42373,0,.71169.35593.81356.69492.61017-.42373,1.3898-.81356,2.3559-.81356c1.7456,0,3.5254,1.1697,3.5254,3.2542v3.7288c.016784.47458.067631.79661.13543,1.1017ZM71.491386,6.441c.49153,0,.83051.32186.83051.77949v12.458c0,.16949-.15254.32186-.32203.32186h-.88136c-.32203,0-.79661-.20322-1.0169-.5422-.54237.37288-1.2542.66085-2.1356.66085-2.3898,0-4.0169-1.932-4.0169-4.4236c0-2.5254,1.9492-4.1525,3.9153-4.1525.89831,0,1.5763.25441,2.1186.57644v-4.0339c0-.61017-.11864-.89831-.18644-1.2203-.050847-.22034.033898-.42373.20339-.42373h1.4915l-.00007-.00041Zm-5.2373,9.2539c0,1.4576.94932,2.2712,2.0847,2.2712.66102,0,1.2032-.18644,1.6441-.40678v-3.3051c-.54237-.32203-1.1356-.54237-1.7797-.54237-.83051,0-1.9492.52542-1.9492,1.9831l.0001-.00005Zm14.728997.8985c.74576,0,1.2375-.40695,1.2375-1.2205c0-1.9831-1.5593-3.8814-4.0678-3.8814-2.3729,0-4.2203,1.8475-4.2203,4.3051c0,2.5763,1.949,4.288,4.3219,4.288c1.5085,0,2.7119-.52542,3.4068-1.5085.11864-.15254.084746-.27119-.050847-.44068l-.38983-.5422c-.16949-.22034-.32203-.18644-.52542-.084746-.45763.25424-1.339.52542-2.1695.52542-1.0169,0-1.9322-.49153-2.1356-1.4405h4.5932l-.000103.000006Zm-4.5763-1.7968c.084746-.54237.72881-1.1695,1.6949-1.1695.98305,0,1.5932.61017,1.678,1.1695h-3.3729Zm13.660825-2.8303c.22034.15254.30525.27119.13592.50847l-.88136,1.2881c-.10169.15254-.23729.20339-.44068.15254-.23729-.084746-.47458-.20339-.98322-.20339-.50847,0-1.4576.22034-1.7119,1.322v4.6441c0,.16949-.13559.32186-.32203.32186h-1.7119c-.16949,0-.30508-.15238-.30508-.32186v-7.7456c0-.16949.13559-.32203.30508-.32203h1.1695c.45763,0,.76271.40678.84729.76271.50864-.44068,1.1697-.83068,2.1356-.83068.86441,0,1.4746.22034,1.7627.42373Z" fill="#ffffff"/></g></svg>
